<?xml version="1.0" encoding="UTF-8"?> <svg xmlns="http://www.w3.org/2000/svg" viewBox="0 0 449.9 107.82"><defs><style>.cls-1{fill:#1d1d1b;}.cls-2{fill:#18344c;}.cls-3{fill:#61b6bc;}.cls-4{fill:#82b29a;}.cls-5{fill:#8e332e;}.cls-6{fill:#49a7ab;}</style></defs><g id="Capa_2" data-name="Capa 2"><g id="Capa_1-2" data-name="Capa 1"><path class="cls-1" d="M11.52,102.6a5.49,5.49,0,0,1-2.43.53,5.4,5.4,0,0,1-2.58-.6,5.57,5.57,0,0,1-1.9-1.65,7.37,7.37,0,0,1-1.19-2.47A10.89,10.89,0,0,1,3,95.32a11.05,11.05,0,0,1,.42-3.12,7.29,7.29,0,0,1,1.2-2.47A5.56,5.56,0,0,1,6.54,88.1a5.33,5.33,0,0,1,2.55-.59,6.1,6.1,0,0,1,2.35.44,4.25,4.25,0,0,1,1.81,1.39l-1.13,1a3.68,3.68,0,0,0-1.34-1.1,3.75,3.75,0,0,0-1.61-.36,3.53,3.53,0,0,0-1.92.51A4.18,4.18,0,0,0,5.9,90.75a6.66,6.66,0,0,0-.8,2.06,11.23,11.23,0,0,0-.27,2.51,10.5,10.5,0,0,0,.28,2.49,6.86,6.86,0,0,0,.81,2,4.15,4.15,0,0,0,1.36,1.4,3.44,3.44,0,0,0,1.91.52,3.38,3.38,0,0,0,1.73-.45,3.84,3.84,0,0,0,1.28-1.19l1.1,1A4.56,4.56,0,0,1,11.52,102.6Z"></path><path class="cls-1" d="M18.52,92.62A2.51,2.51,0,0,1,20.17,92l.3,0,0,1.43-.19,0H20a1.85,1.85,0,0,0-1.12.36,3.06,3.06,0,0,0-.81.93A4.61,4.61,0,0,0,17.6,96a6.55,6.55,0,0,0-.16,1.44v5.33H15.78V95c0-.23,0-.47,0-.73s0-.51,0-.76,0-.46,0-.67a4.13,4.13,0,0,0,0-.47h1.61c0,.26.06.6.07,1s0,.82,0,1.27h.05A3.68,3.68,0,0,1,18.52,92.62Z"></path><path class="cls-1" d="M24.48,89.13a.91.91,0,0,1-.33.72,1.12,1.12,0,0,1-.77.29,1.13,1.13,0,0,1-.79-.29.93.93,0,0,1-.32-.72,1,1,0,0,1,.32-.72,1.13,1.13,0,0,1,.79-.29,1.15,1.15,0,0,1,.79.29A1,1,0,0,1,24.48,89.13Zm-1.93,13.64V92.33H24.2v10.44Z"></path><path class="cls-1" d="M31.42,103a4.49,4.49,0,0,1-.83.08,2.12,2.12,0,0,1-1.84-.75,3.44,3.44,0,0,1-.54-2v-6.8H26.58V92.33h1.61V89.44h1.63v2.89H32v1.13h-2.2V100a2.38,2.38,0,0,0,.32,1.38,1.15,1.15,0,0,0,1,.43,2.8,2.8,0,0,0,.48,0,2.71,2.71,0,0,0,.42-.12l.08,1.12A5.31,5.31,0,0,1,31.42,103Z"></path><path class="cls-1" d="M36.26,89.13a.91.91,0,0,1-.33.72,1.13,1.13,0,0,1-.77.29,1.11,1.11,0,0,1-.79-.29.93.93,0,0,1-.32-.72,1,1,0,0,1,.32-.72,1.11,1.11,0,0,1,.79-.29,1.15,1.15,0,0,1,.79.29A1,1,0,0,1,36.26,89.13Zm-1.93,13.64V92.33H36v10.44Z"></path><path class="cls-1" d="M43.38,103.11a4,4,0,0,1-1.86-.41,4,4,0,0,1-1.34-1.14,5.14,5.14,0,0,1-.81-1.75,9.26,9.26,0,0,1,0-4.52,4.94,4.94,0,0,1,.82-1.76,3.83,3.83,0,0,1,1.36-1.14A4,4,0,0,1,43.4,92a4,4,0,0,1,1.63.3,3.35,3.35,0,0,1,1.08.69l-.88,1a2.14,2.14,0,0,0-.75-.57,2.46,2.46,0,0,0-1-.21,2,2,0,0,0-1.17.33,2.53,2.53,0,0,0-.81.9A4.52,4.52,0,0,0,41,95.81a8.56,8.56,0,0,0-.17,1.74,8.16,8.16,0,0,0,.17,1.7,4.3,4.3,0,0,0,.49,1.35,2.46,2.46,0,0,0,.83.89,2.31,2.31,0,0,0,1.22.31,2.47,2.47,0,0,0,1.09-.22,2.27,2.27,0,0,0,.79-.62l.75,1.07A3.58,3.58,0,0,1,43.38,103.11Z"></path><path class="cls-1" d="M53.47,102.77q0-.17,0-.42l0-.54c0-.19,0-.37,0-.55v-.45h0a2.82,2.82,0,0,1-3,2.23,3.21,3.21,0,0,1-1.05-.17,2.58,2.58,0,0,1-.95-.54,3,3,0,0,1-.71-1,3.3,3.3,0,0,1-.27-1.4,3.15,3.15,0,0,1,.48-1.83A3.33,3.33,0,0,1,49,97a4.89,4.89,0,0,1,1.59-.53,10.68,10.68,0,0,1,1.64-.14h1v-.55a2.83,2.83,0,0,0-.6-2A2.15,2.15,0,0,0,51,93.19a2.75,2.75,0,0,0-1.3.32,3.28,3.28,0,0,0-1,.8l-.88-.87a3.84,3.84,0,0,1,1.5-1.07A5,5,0,0,1,51.17,92,3.31,3.31,0,0,1,54,93.06a5.11,5.11,0,0,1,.83,3.14v4.34c0,.14,0,.31,0,.52l0,.65c0,.21,0,.42,0,.61s0,.34,0,.45Zm-.2-5.31h-1a8.09,8.09,0,0,0-1.2.1,3,3,0,0,0-1.07.36,2.09,2.09,0,0,0-.76.72,2.18,2.18,0,0,0-.3,1.2,1.94,1.94,0,0,0,.58,1.58,1.87,1.87,0,0,0,1.25.49,2,2,0,0,0,1.19-.36,2.62,2.62,0,0,0,.77-.91,4.16,4.16,0,0,0,.42-1.2,6.88,6.88,0,0,0,.12-1.26Z"></path><path class="cls-1" d="M58.39,102.77V86.85H60v15.92Z"></path><path class="cls-1" d="M75.78,102.77,74.7,99H69.24l-1.13,3.73H66.33l4.51-14.91h2.38l4.39,14.91ZM72,89.19h-.1l-2.45,8.67h5Z"></path><path class="cls-1" d="M83.25,103.11a4.08,4.08,0,0,1-1.86-.41,4,4,0,0,1-1.34-1.14,5.14,5.14,0,0,1-.81-1.75,9.26,9.26,0,0,1,0-4.52,5.11,5.11,0,0,1,.82-1.76,3.83,3.83,0,0,1,1.36-1.14,4,4,0,0,1,1.85-.4,4,4,0,0,1,1.63.3A3.35,3.35,0,0,1,86,93l-.88,1a2.14,2.14,0,0,0-.75-.57,2.46,2.46,0,0,0-1-.21,2.06,2.06,0,0,0-1.17.33,2.53,2.53,0,0,0-.81.9,4.81,4.81,0,0,0-.49,1.37,8.58,8.58,0,0,0-.16,1.74,8.18,8.18,0,0,0,.16,1.7,4.57,4.57,0,0,0,.49,1.35,2.4,2.4,0,0,0,.84.89,2.25,2.25,0,0,0,1.21.31,2.47,2.47,0,0,0,1.09-.22,2.27,2.27,0,0,0,.79-.62L86,102A3.56,3.56,0,0,1,83.25,103.11Z"></path><path class="cls-1" d="M91.49,103a4.49,4.49,0,0,1-.83.08,2.12,2.12,0,0,1-1.84-.75,3.44,3.44,0,0,1-.54-2v-6.8H86.65V92.33h1.61V89.44h1.63v2.89h2.2v1.13h-2.2V100a2.38,2.38,0,0,0,.32,1.38,1.15,1.15,0,0,0,1,.43,2.8,2.8,0,0,0,.48,0,2.71,2.71,0,0,0,.42-.12l.08,1.12A5.31,5.31,0,0,1,91.49,103Z"></path><path class="cls-1" d="M96.33,89.13a.91.91,0,0,1-.33.72,1.13,1.13,0,0,1-.77.29,1.11,1.11,0,0,1-.79-.29.93.93,0,0,1-.32-.72,1,1,0,0,1,.32-.72,1.21,1.21,0,0,1,1.57,0A1,1,0,0,1,96.33,89.13ZM94.4,102.77V92.33h1.65v10.44Z"></path><path class="cls-1" d="M107.83,97.57a7.85,7.85,0,0,1-.3,2.25,5.59,5.59,0,0,1-.85,1.75,3.86,3.86,0,0,1-1.37,1.14,4.3,4.3,0,0,1-3.62,0,3.92,3.92,0,0,1-1.36-1.14,5.22,5.22,0,0,1-.87-1.75,7.85,7.85,0,0,1-.3-2.25,8.44,8.44,0,0,1,.29-2.27,5.19,5.19,0,0,1,.84-1.77,3.75,3.75,0,0,1,1.36-1.14,4.12,4.12,0,0,1,1.85-.4,4,4,0,0,1,1.81.4,3.86,3.86,0,0,1,1.37,1.14,5.6,5.6,0,0,1,.85,1.77A8,8,0,0,1,107.83,97.57Zm-1.7,0a8.43,8.43,0,0,0-.17-1.72,4.66,4.66,0,0,0-.49-1.38,2.56,2.56,0,0,0-.81-.91,2,2,0,0,0-1.16-.34,2,2,0,0,0-1.18.34,2.49,2.49,0,0,0-.82.91,4.66,4.66,0,0,0-.47,1.38,8.43,8.43,0,0,0-.17,1.72,8.23,8.23,0,0,0,.17,1.7,4.73,4.73,0,0,0,.47,1.36,2.37,2.37,0,0,0,.82.92,2.32,2.32,0,0,0,2.35,0,2.37,2.37,0,0,0,.82-.92,5.05,5.05,0,0,0,.47-1.36A8.23,8.23,0,0,0,106.13,97.54Z"></path><path class="cls-1" d="M117.3,102.77V96a8.18,8.18,0,0,0-.06-1,2.43,2.43,0,0,0-.28-.9,1.66,1.66,0,0,0-1.61-.94,2.2,2.2,0,0,0-1.12.29,2.61,2.61,0,0,0-.82.77,3.74,3.74,0,0,0-.53,1.14,4.62,4.62,0,0,0-.19,1.34v6H111V95c0-.23,0-.47,0-.73l0-.76c0-.24,0-.46,0-.67s0-.36,0-.47h1.6c0,.26.06.59.08,1s0,.73,0,1.07h0a3.83,3.83,0,0,1,1.15-1.72,3.08,3.08,0,0,1,2-.66,3.19,3.19,0,0,1,1.62.36,2.49,2.49,0,0,1,.94.94,3.83,3.83,0,0,1,.43,1.3A8.84,8.84,0,0,1,119,96v6.74Z"></path><path class="cls-1" d="M136.15,91.91a4.38,4.38,0,0,1-.36,1.82,4,4,0,0,1-1,1.31,4.08,4.08,0,0,1-1.39.8,4.79,4.79,0,0,1-1.64.28h-2.61v6.65h-1.73V87.86h4.19a7.25,7.25,0,0,1,1.58.19,4,4,0,0,1,1.45.67A3.65,3.65,0,0,1,135.74,90,4.16,4.16,0,0,1,136.15,91.91Zm-1.73,0a3.27,3.27,0,0,0-.23-1.27,2.26,2.26,0,0,0-.62-.87,2.48,2.48,0,0,0-.92-.49,3.59,3.59,0,0,0-1.11-.16h-2.36v5.72h2.38a3,3,0,0,0,2-.72A2.76,2.76,0,0,0,134.42,91.92Z"></path><path class="cls-1" d="M138.88,102.77V86.85h1.65v15.92Z"></path><path class="cls-1" d="M149.61,102.77a3.75,3.75,0,0,1,0-.42l0-.54c0-.19,0-.37,0-.55v-.45h-.05a2.82,2.82,0,0,1-3,2.23,3.21,3.21,0,0,1-1.05-.17,2.58,2.58,0,0,1-.95-.54,2.87,2.87,0,0,1-.7-1,3.69,3.69,0,0,1,.2-3.23,3.42,3.42,0,0,1,1.2-1.1,4.89,4.89,0,0,1,1.59-.53,10.68,10.68,0,0,1,1.64-.14h1v-.55a2.83,2.83,0,0,0-.6-2,2.15,2.15,0,0,0-1.63-.63,2.75,2.75,0,0,0-1.3.32,3.4,3.4,0,0,0-1,.8l-.88-.87a3.81,3.81,0,0,1,1.51-1.07A4.86,4.86,0,0,1,147.3,92a3.31,3.31,0,0,1,2.78,1.07,5.11,5.11,0,0,1,.83,3.14v4.34c0,.14,0,.31,0,.52l0,.65c0,.21,0,.42,0,.61s0,.34.05.45Zm-.2-5.31h-1a8.09,8.09,0,0,0-1.2.1,2.89,2.89,0,0,0-1.06.36,2.12,2.12,0,0,0-.77.72,2.18,2.18,0,0,0-.3,1.2,1.94,1.94,0,0,0,.58,1.58,1.87,1.87,0,0,0,1.25.49,2,2,0,0,0,1.19-.36,2.65,2.65,0,0,0,.78-.91,4.15,4.15,0,0,0,.41-1.2,6.91,6.91,0,0,0,.13-1.26Z"></path><path class="cls-1" d="M160.88,102.77V96a8.18,8.18,0,0,0-.06-1,2.43,2.43,0,0,0-.28-.9,1.66,1.66,0,0,0-1.61-.94,2.2,2.2,0,0,0-1.12.29,2.61,2.61,0,0,0-.82.77,3.74,3.74,0,0,0-.53,1.14,4.62,4.62,0,0,0-.19,1.34v6h-1.65V95c0-.23,0-.47,0-.73l0-.76c0-.24,0-.46,0-.67s0-.36,0-.47h1.6c0,.26.06.59.08,1s0,.73,0,1.07h.05a3.83,3.83,0,0,1,1.15-1.72,3.08,3.08,0,0,1,2-.66,3.19,3.19,0,0,1,1.62.36,2.49,2.49,0,0,1,.94.94,3.83,3.83,0,0,1,.43,1.3,8.84,8.84,0,0,1,.12,1.44v6.74Z"></path><path class="cls-1" d="M172.66,102.77V96a8.18,8.18,0,0,0-.06-1,2.63,2.63,0,0,0-.28-.9,1.78,1.78,0,0,0-.6-.68,1.82,1.82,0,0,0-1-.26,2.2,2.2,0,0,0-1.12.29,2.76,2.76,0,0,0-.83.77,4,4,0,0,0-.52,1.14,4.62,4.62,0,0,0-.19,1.34v6H166.4V95c0-.23,0-.47,0-.73s0-.51,0-.76,0-.46,0-.67a4.61,4.61,0,0,0,0-.47h1.6c0,.26.06.59.07,1s0,.73,0,1.07h.05a3.75,3.75,0,0,1,1.15-1.72,3.08,3.08,0,0,1,2-.66,3.15,3.15,0,0,1,1.61.36,2.43,2.43,0,0,1,.94.94,3.64,3.64,0,0,1,.44,1.3,8.84,8.84,0,0,1,.12,1.44v6.74Z"></path><path class="cls-1" d="M180,89.13a.91.91,0,0,1-.33.72,1.16,1.16,0,0,1-.78.29,1.13,1.13,0,0,1-.79-.29.92.92,0,0,1-.31-.72,1,1,0,0,1,.31-.72,1.22,1.22,0,0,1,1.58,0A1,1,0,0,1,180,89.13Zm-1.93,13.64V92.33h1.65v10.44Z"></path><path class="cls-1" d="M190,102.77V96a8.18,8.18,0,0,0-.06-1,2.62,2.62,0,0,0-.27-.9,1.9,1.9,0,0,0-.61-.68,1.8,1.8,0,0,0-1-.26,2.2,2.2,0,0,0-1.12.29,2.61,2.61,0,0,0-.82.77,4,4,0,0,0-.53,1.14,4.62,4.62,0,0,0-.19,1.34v6h-1.65V95c0-.23,0-.47,0-.73l0-.76c0-.24,0-.46,0-.67s0-.36,0-.47h1.6c0,.26.06.59.08,1s0,.73,0,1.07h.05a3.76,3.76,0,0,1,1.16-1.72,3,3,0,0,1,2-.66,3.19,3.19,0,0,1,1.62.36,2.49,2.49,0,0,1,.94.94,3.83,3.83,0,0,1,.43,1.3,8.84,8.84,0,0,1,.12,1.44v6.74Z"></path><path class="cls-1" d="M203.18,102.62a9.45,9.45,0,0,1-.21,2.06,4.49,4.49,0,0,1-.71,1.65,3.52,3.52,0,0,1-1.36,1.09,4.91,4.91,0,0,1-2.13.4,5.65,5.65,0,0,1-2.29-.47,4.6,4.6,0,0,1-1.72-1.28l1.08-1a4,4,0,0,0,1.27,1,3.72,3.72,0,0,0,1.71.4,2.78,2.78,0,0,0,1.37-.3,2.07,2.07,0,0,0,.84-.82,3.94,3.94,0,0,0,.43-1.24,9.58,9.58,0,0,0,.12-1.58V100.9h-.05a3.45,3.45,0,0,1-1,1.57,2.83,2.83,0,0,1-2,.64,3.27,3.27,0,0,1-1.68-.42,3.91,3.91,0,0,1-1.23-1.17,5.7,5.7,0,0,1-.76-1.77,8.76,8.76,0,0,1-.27-2.24,9.57,9.57,0,0,1,.25-2.23,5.54,5.54,0,0,1,.74-1.74,3.62,3.62,0,0,1,1.23-1.14,3.49,3.49,0,0,1,1.69-.41,3.13,3.13,0,0,1,1.92.58,2.83,2.83,0,0,1,1.07,1.53h.07V92.33h1.6Zm-1.6-5.07a8.56,8.56,0,0,0-.16-1.71,5,5,0,0,0-.5-1.39,2.78,2.78,0,0,0-.84-.92,2,2,0,0,0-1.15-.34,2,2,0,0,0-1.17.34,2.68,2.68,0,0,0-.82.91,4.76,4.76,0,0,0-.47,1.38,9.45,9.45,0,0,0-.15,1.73,9,9,0,0,0,.15,1.69,4.76,4.76,0,0,0,.47,1.38,2.66,2.66,0,0,0,.82.93,2.17,2.17,0,0,0,2.33,0,2.85,2.85,0,0,0,.83-.92,4.6,4.6,0,0,0,.5-1.37A8.28,8.28,0,0,0,201.58,97.55Z"></path><path class="cls-1" d="M219.6,97.57a7.85,7.85,0,0,1-.3,2.25,5.38,5.38,0,0,1-.85,1.75,3.86,3.86,0,0,1-1.37,1.14,4.16,4.16,0,0,1-1.82.4,3.85,3.85,0,0,1-3.17-1.54,5.4,5.4,0,0,1-.86-1.75,7.85,7.85,0,0,1-.3-2.25,8.06,8.06,0,0,1,.29-2.27,5.19,5.19,0,0,1,.84-1.77,3.75,3.75,0,0,1,1.36-1.14,4.11,4.11,0,0,1,1.84-.4,4,4,0,0,1,1.82.4,3.86,3.86,0,0,1,1.37,1.14,5.39,5.39,0,0,1,.85,1.77A8,8,0,0,1,219.6,97.57Zm-1.7,0a8.43,8.43,0,0,0-.17-1.72,4.66,4.66,0,0,0-.49-1.38,2.56,2.56,0,0,0-.81-.91,2,2,0,0,0-1.17-.34,2,2,0,0,0-1.17.34,2.49,2.49,0,0,0-.82.91,4.66,4.66,0,0,0-.47,1.38,8.43,8.43,0,0,0-.17,1.72,8.23,8.23,0,0,0,.17,1.7,4.73,4.73,0,0,0,.47,1.36,2.37,2.37,0,0,0,.82.92,2.32,2.32,0,0,0,2.35,0,2.37,2.37,0,0,0,.82-.92,5.05,5.05,0,0,0,.47-1.36A8.23,8.23,0,0,0,217.9,97.54Z"></path><path class="cls-1" d="M226.49,102.77h-2L221.2,92.33H223l2.58,9h.05l2.45-9h1.71Z"></path><path class="cls-1" d="M233,97.84a7.11,7.11,0,0,0,.17,1.59,4.18,4.18,0,0,0,.52,1.27,2.65,2.65,0,0,0,.86.84,2.37,2.37,0,0,0,1.22.3,2.2,2.2,0,0,0,1.46-.46,3.12,3.12,0,0,0,.85-1.12l1.26.61a4,4,0,0,1-1.34,1.59,3.79,3.79,0,0,1-2.27.65,3.83,3.83,0,0,1-3.23-1.48,6.41,6.41,0,0,1-1.16-4.06,8.05,8.05,0,0,1,.3-2.25,5.41,5.41,0,0,1,.86-1.77,4.13,4.13,0,0,1,1.38-1.15A4,4,0,0,1,235.7,92a3.93,3.93,0,0,1,1.86.4,3.37,3.37,0,0,1,1.24,1.1,4.75,4.75,0,0,1,.69,1.62,8.84,8.84,0,0,1,.21,2v.75Zm5-1.15a4.83,4.83,0,0,0-.58-2.54,2.19,2.19,0,0,0-3-.59,3,3,0,0,0-.81.9,4,4,0,0,0-.45,1.15,5.16,5.16,0,0,0-.14,1.08Z"></path><path class="cls-1" d="M245.54,92.62a2.51,2.51,0,0,1,1.65-.61l.3,0-.05,1.43-.19,0H247a1.8,1.8,0,0,0-1.11.36,3,3,0,0,0-.82.93,4.61,4.61,0,0,0-.49,1.29,6.55,6.55,0,0,0-.16,1.44v5.33h-1.65V95c0-.23,0-.47,0-.73s0-.51,0-.76,0-.46,0-.67,0-.36,0-.47h1.6c0,.26.06.6.07,1s0,.82,0,1.27h.05A3.68,3.68,0,0,1,245.54,92.62Z"></path><path class="cls-1" d="M254.31,102.77V87.86h7.14v1.31H256v5.22h5.09v1.26H256v5.79h5.69v1.33Z"></path><path class="cls-1" d="M270,102.77l-2.48-4.38L265,102.77h-1.83l3.31-5.49-3-5h1.85l2.18,3.93,2.16-3.93h1.8l-3,4.92,3.36,5.52Z"></path><path class="cls-1" d="M277.51,103a4.38,4.38,0,0,1-.82.08,2.1,2.1,0,0,1-1.84-.75,3.44,3.44,0,0,1-.54-2v-6.8h-1.63V92.33h1.6V89.44h1.63v2.89h2.21v1.13h-2.21V100a2.3,2.3,0,0,0,.33,1.38,1.12,1.12,0,0,0,1,.43,2.8,2.8,0,0,0,.48,0,2.87,2.87,0,0,0,.43-.12l.07,1.12A4.88,4.88,0,0,1,277.51,103Z"></path><path class="cls-1" d="M283.25,92.62a2.56,2.56,0,0,1,1.66-.61l.3,0,0,1.43-.19,0h-.21a1.85,1.85,0,0,0-1.12.36,2.93,2.93,0,0,0-.81.93,4.61,4.61,0,0,0-.49,1.29,6.55,6.55,0,0,0-.16,1.44v5.33h-1.66V95c0-.23,0-.47,0-.73s0-.51,0-.76,0-.46,0-.67a4.13,4.13,0,0,0,0-.47H282c0,.26.06.6.07,1s0,.82,0,1.27h.05A3.73,3.73,0,0,1,283.25,92.62Z"></path><path class="cls-1" d="M288,97.84a6.55,6.55,0,0,0,.18,1.59,4.17,4.17,0,0,0,.51,1.27,2.65,2.65,0,0,0,.86.84,2.37,2.37,0,0,0,1.22.3,2.18,2.18,0,0,0,1.46-.46,3.15,3.15,0,0,0,.86-1.12l1.25.61a4,4,0,0,1-1.34,1.59,3.77,3.77,0,0,1-2.27.65,3.85,3.85,0,0,1-3.23-1.48,6.41,6.41,0,0,1-1.15-4.06,8.05,8.05,0,0,1,.3-2.25,5.22,5.22,0,0,1,.86-1.77A3.87,3.87,0,0,1,290.73,92a4,4,0,0,1,1.87.4,3.34,3.34,0,0,1,1.23,1.1,4.56,4.56,0,0,1,.69,1.62,8.84,8.84,0,0,1,.21,2v.75Zm5-1.15a4.92,4.92,0,0,0-.58-2.54,2.2,2.2,0,0,0-3-.59,3.14,3.14,0,0,0-.8.9,4.39,4.39,0,0,0-.46,1.15,5.08,5.08,0,0,0-.13,1.08Z"></path><path class="cls-1" d="M300.58,92.65a3,3,0,0,1,2-.66,3.09,3.09,0,0,1,1.16.2,2.52,2.52,0,0,1,.83.53,2.18,2.18,0,0,1,.52.77,4.72,4.72,0,0,1,.29.9h0a3.81,3.81,0,0,1,.42-.89,3,3,0,0,1,.69-.77,3.05,3.05,0,0,1,.95-.54,3.53,3.53,0,0,1,1.21-.2,3.11,3.11,0,0,1,1.6.36,2.62,2.62,0,0,1,.93.94,3.46,3.46,0,0,1,.45,1.3,8.81,8.81,0,0,1,.11,1.44v6.74h-1.65V96a8.18,8.18,0,0,0-.06-1,2.86,2.86,0,0,0-.27-.9,1.68,1.68,0,0,0-.59-.68,1.86,1.86,0,0,0-1-.26,2.14,2.14,0,0,0-1.09.29,2.58,2.58,0,0,0-.81.77,3.94,3.94,0,0,0-.5,1.14,5,5,0,0,0-.18,1.34v6H304V96a8.47,8.47,0,0,0-.06-1,3.21,3.21,0,0,0-.25-.91,1.57,1.57,0,0,0-.58-.67,1.85,1.85,0,0,0-1-.25,2.07,2.07,0,0,0-1.1.29,2.58,2.58,0,0,0-.81.77,3.48,3.48,0,0,0-.51,1.14,5,5,0,0,0-.18,1.34v6h-1.65V95c0-.23,0-.47,0-.73l0-.76c0-.24,0-.46,0-.67a4.13,4.13,0,0,0,0-.47h1.63c0,.26.06.59.07,1s0,.73,0,1.07h0A3.25,3.25,0,0,1,300.58,92.65Z"></path><path class="cls-1" d="M316.51,97.84a6.55,6.55,0,0,0,.18,1.59,4.17,4.17,0,0,0,.51,1.27,2.65,2.65,0,0,0,.86.84,2.37,2.37,0,0,0,1.22.3,2.2,2.2,0,0,0,1.46-.46,3.15,3.15,0,0,0,.86-1.12l1.25.61a4,4,0,0,1-1.34,1.59,3.77,3.77,0,0,1-2.27.65,3.85,3.85,0,0,1-3.23-1.48,6.41,6.41,0,0,1-1.15-4.06,8.05,8.05,0,0,1,.3-2.25,5.22,5.22,0,0,1,.86-1.77A3.87,3.87,0,0,1,319.2,92a3.88,3.88,0,0,1,1.86.4,3.37,3.37,0,0,1,1.24,1.1,4.56,4.56,0,0,1,.69,1.62,8.84,8.84,0,0,1,.21,2v.75Zm5-1.15a4.92,4.92,0,0,0-.58-2.54,2.2,2.2,0,0,0-3-.59,3,3,0,0,0-.8.9,4.39,4.39,0,0,0-.46,1.15,5.08,5.08,0,0,0-.13,1.08Z"></path><path class="cls-1" d="M325.23,97.82V96.64H329v1.18Z"></path><path class="cls-1" d="M339.36,99a4.13,4.13,0,0,1-.35,1.76,3.77,3.77,0,0,1-1,1.3,4.26,4.26,0,0,1-1.44.82,5.37,5.37,0,0,1-1.76.29,6.18,6.18,0,0,1-2.49-.49,5,5,0,0,1-1.84-1.28l1.08-1a3.74,3.74,0,0,0,1.45,1.07,4.49,4.49,0,0,0,1.78.38,3,3,0,0,0,2-.72,2.56,2.56,0,0,0,.81-2,2.33,2.33,0,0,0-.25-1.11,3,3,0,0,0-.68-.87,5.28,5.28,0,0,0-1-.67,12,12,0,0,0-1.14-.55,11,11,0,0,1-1.38-.66,5.84,5.84,0,0,1-1.14-.85,3.86,3.86,0,0,1-.79-1.15,3.73,3.73,0,0,1-.3-1.55,4,4,0,0,1,.37-1.8,3.78,3.78,0,0,1,1-1.28,4.36,4.36,0,0,1,1.44-.77,5.56,5.56,0,0,1,1.68-.25,6.42,6.42,0,0,1,2.17.34,3.94,3.94,0,0,1,1.61,1.09l-1.07,1a2.82,2.82,0,0,0-1.18-.87,3.94,3.94,0,0,0-1.48-.27,3.7,3.7,0,0,0-1,.16,2.53,2.53,0,0,0-.91.5,2.5,2.5,0,0,0-.66.86,3,3,0,0,0-.25,1.24,2.51,2.51,0,0,0,.23,1.1,2.83,2.83,0,0,0,.61.82,4.08,4.08,0,0,0,.91.63,11.47,11.47,0,0,0,1.06.5,13.7,13.7,0,0,1,1.39.68,6.16,6.16,0,0,1,1.24.88,3.92,3.92,0,0,1,.88,1.18A3.57,3.57,0,0,1,339.36,99Z"></path><path class="cls-1" d="M346,103.11a4,4,0,0,1-1.85-.41,3.92,3.92,0,0,1-1.35-1.14,5.33,5.33,0,0,1-.81-1.75,9.26,9.26,0,0,1,0-4.52,5,5,0,0,1,.83-1.76,3.8,3.8,0,0,1,1.35-1.14A4,4,0,0,1,346,92a4,4,0,0,1,1.62.3,3.24,3.24,0,0,1,1.08.69l-.88,1a2.14,2.14,0,0,0-.75-.57,2.46,2.46,0,0,0-1.05-.21,2,2,0,0,0-1.16.33,2.65,2.65,0,0,0-.82.9,4.81,4.81,0,0,0-.49,1.37,8.58,8.58,0,0,0-.16,1.74,8.18,8.18,0,0,0,.16,1.7,4.57,4.57,0,0,0,.49,1.35,2.57,2.57,0,0,0,.84.89,2.28,2.28,0,0,0,1.22.31,2.5,2.5,0,0,0,1.09-.22A2.27,2.27,0,0,0,348,101l.75,1.07A3.59,3.59,0,0,1,346,103.11Z"></path><path class="cls-1" d="M356.08,102.77a3.75,3.75,0,0,1,0-.42c0-.17,0-.35,0-.54s0-.37,0-.55v-.45H356a2.81,2.81,0,0,1-3,2.23,3.26,3.26,0,0,1-1.06-.17,2.66,2.66,0,0,1-.95-.54,3,3,0,0,1-.7-1A3.29,3.29,0,0,1,350,100a3.15,3.15,0,0,1,.48-1.83,3.5,3.5,0,0,1,1.2-1.1,5.05,5.05,0,0,1,1.59-.53,10.81,10.81,0,0,1,1.65-.14h1v-.55a2.83,2.83,0,0,0-.6-2,2.14,2.14,0,0,0-1.63-.63,2.78,2.78,0,0,0-1.3.32,3.52,3.52,0,0,0-1,.8l-.87-.87a3.7,3.7,0,0,1,1.5-1.07,4.94,4.94,0,0,1,1.85-.38,3.33,3.33,0,0,1,2.79,1.07,5.11,5.11,0,0,1,.82,3.14v4.34c0,.14,0,.31,0,.52s0,.43,0,.65,0,.42,0,.61a3.58,3.58,0,0,0,.05.45Zm-.2-5.31h-1a8.23,8.23,0,0,0-1.21.1,3,3,0,0,0-1.06.36,2.12,2.12,0,0,0-.77.72,2.18,2.18,0,0,0-.3,1.2,2,2,0,0,0,.58,1.58,1.87,1.87,0,0,0,1.25.49,1.93,1.93,0,0,0,1.19-.36,2.54,2.54,0,0,0,.78-.91,4.15,4.15,0,0,0,.41-1.2,6.13,6.13,0,0,0,.13-1.26Z"></path><path class="cls-1" d="M361,102.77V86.85h1.65v15.92Z"></path><path class="cls-1" d="M367.41,97.84a7.11,7.11,0,0,0,.17,1.59,4.18,4.18,0,0,0,.52,1.27,2.65,2.65,0,0,0,.86.84,2.37,2.37,0,0,0,1.22.3,2.2,2.2,0,0,0,1.46-.46,3.12,3.12,0,0,0,.85-1.12l1.26.61a4,4,0,0,1-1.34,1.59,3.79,3.79,0,0,1-2.27.65,3.83,3.83,0,0,1-3.23-1.48,6.41,6.41,0,0,1-1.16-4.06,8.05,8.05,0,0,1,.3-2.25,5.41,5.41,0,0,1,.86-1.77,4.13,4.13,0,0,1,1.38-1.15A4,4,0,0,1,370.1,92a3.93,3.93,0,0,1,1.86.4,3.37,3.37,0,0,1,1.24,1.1,4.75,4.75,0,0,1,.69,1.62,8.84,8.84,0,0,1,.21,2v.75Zm5-1.15a4.83,4.83,0,0,0-.58-2.54,2.19,2.19,0,0,0-3-.59,3,3,0,0,0-.81.9,4,4,0,0,0-.45,1.15,5.16,5.16,0,0,0-.14,1.08Z"></path><path class="cls-1" d="M392.09,95.34a10.48,10.48,0,0,1-.45,3.22,6.15,6.15,0,0,1-1.3,2.32,5.45,5.45,0,0,1-2,1.42,7.17,7.17,0,0,1-2.64.47h-3.81V87.86h3.84a7,7,0,0,1,2.64.48,5.27,5.27,0,0,1,2,1.42,6.41,6.41,0,0,1,1.29,2.35A10.55,10.55,0,0,1,392.09,95.34Zm-1.73,0a9.43,9.43,0,0,0-.36-2.76,5.58,5.58,0,0,0-1-1.93,4.06,4.06,0,0,0-1.51-1.14,4.45,4.45,0,0,0-1.86-.38h-2.06v12.38h2.06a4.62,4.62,0,0,0,1.86-.38A4.28,4.28,0,0,0,389,100a5.58,5.58,0,0,0,1-1.93A9.19,9.19,0,0,0,390.36,95.34Z"></path><path class="cls-1" d="M400.51,102.77c0-.11,0-.25,0-.42s0-.35,0-.54,0-.37,0-.55v-.45h-.05a2.82,2.82,0,0,1-3,2.23,3.21,3.21,0,0,1-1.05-.17,2.7,2.7,0,0,1-1-.54,3.18,3.18,0,0,1-.7-1,3.3,3.3,0,0,1-.27-1.4,3.15,3.15,0,0,1,.47-1.83,3.45,3.45,0,0,1,1.21-1.1,4.89,4.89,0,0,1,1.59-.53,10.58,10.58,0,0,1,1.64-.14h1v-.55a2.78,2.78,0,0,0-.61-2,2.13,2.13,0,0,0-1.62-.63,2.79,2.79,0,0,0-1.31.32,3.36,3.36,0,0,0-1,.8l-.88-.87a3.7,3.7,0,0,1,1.5-1.07,5,5,0,0,1,1.86-.38A3.31,3.31,0,0,1,401,93.06a5.11,5.11,0,0,1,.83,3.14v4.34c0,.14,0,.31,0,.52s0,.43,0,.65,0,.42,0,.61,0,.34.05.45Zm-.2-5.31h-1a8.09,8.09,0,0,0-1.2.1,3,3,0,0,0-1.07.36,2.09,2.09,0,0,0-.76.72,2.18,2.18,0,0,0-.3,1.2,2,2,0,0,0,.57,1.58,1.89,1.89,0,0,0,1.25.49,2,2,0,0,0,1.2-.36,2.62,2.62,0,0,0,.77-.91,4.48,4.48,0,0,0,.42-1.2,6.88,6.88,0,0,0,.12-1.26Z"></path><path class="cls-1" d="M408.78,103a4.49,4.49,0,0,1-.83.08,2.12,2.12,0,0,1-1.84-.75,3.44,3.44,0,0,1-.54-2v-6.8H404V92.33h1.6V89.44h1.63v2.89h2.2v1.13h-2.2V100a2.38,2.38,0,0,0,.32,1.38,1.15,1.15,0,0,0,1,.43,2.8,2.8,0,0,0,.48,0,2.71,2.71,0,0,0,.42-.12l.08,1.12A5.31,5.31,0,0,1,408.78,103Z"></path><path class="cls-1" d="M416.9,102.77c0-.11,0-.25,0-.42s0-.35,0-.54,0-.37,0-.55v-.45h-.05a2.82,2.82,0,0,1-3,2.23,3.21,3.21,0,0,1-1-.17,2.7,2.7,0,0,1-1-.54,3.18,3.18,0,0,1-.7-1,3.3,3.3,0,0,1-.27-1.4,3.22,3.22,0,0,1,.47-1.83,3.45,3.45,0,0,1,1.21-1.1,4.89,4.89,0,0,1,1.59-.53,10.58,10.58,0,0,1,1.64-.14h1v-.55a2.83,2.83,0,0,0-.6-2,2.17,2.17,0,0,0-1.63-.63,2.79,2.79,0,0,0-1.31.32,3.36,3.36,0,0,0-1,.8l-.88-.87a3.7,3.7,0,0,1,1.5-1.07A5,5,0,0,1,414.6,92a3.31,3.31,0,0,1,2.78,1.07,5.11,5.11,0,0,1,.83,3.14v4.34c0,.14,0,.31,0,.52s0,.43,0,.65,0,.42,0,.61,0,.34.05.45Zm-.2-5.31h-1a8.09,8.09,0,0,0-1.2.1,3,3,0,0,0-1.07.36,2.09,2.09,0,0,0-.76.72,2.18,2.18,0,0,0-.3,1.2,2,2,0,0,0,.57,1.58,1.89,1.89,0,0,0,1.25.49,2,2,0,0,0,1.2-.36,2.62,2.62,0,0,0,.77-.91,4.48,4.48,0,0,0,.42-1.2,6.88,6.88,0,0,0,.12-1.26Z"></path><path class="cls-2" d="M44.83,1V10.3H24.16c-10.3,0-14.81,5.15-14.81,17.42s4.43,17.35,14.81,17.35H44.83v9.35H24.16C8.55,54.42,0,45.62,0,27.72S8.63,1,24.16,1Z"></path><path class="cls-2" d="M81.2,1c12,0,17.19,7.45,17.19,16,0,6.65-3.17,13.78-11.33,16.08L99.5,54.42H89.12L76.92,33.74H63a1.18,1.18,0,0,0-1.34,1.35V54.42H52.29V33.27c0-6,2.53-8.48,8.4-8.48H81.52c5.3,0,7.44-3.64,7.44-7.44s-2.29-7-7.44-7H52.21V1Z"></path><path class="cls-2" d="M236.19,1c15.61,0,24.08,8.71,24.08,26.77s-8.39,26.7-24.08,26.7H217.34c-3,0-4.43-1.43-4.43-4.36V5.31c0-2.93,1.42-4.36,4.43-4.36ZM222.25,44.12c0,.71.32,1,1,1h12.91c10.38,0,14.74-5.15,14.74-17.43S246.57,10.3,236.19,10.3H223.28c-.71,0-1,.23-1,.95Z"></path><path class="cls-2" d="M272.28,54.42H262L280.75,6.89c2-5,5.63-6.89,11.25-6.89s9.19,1.9,11.09,6.89l18.06,47.53H310.77l-16.24-43a2.54,2.54,0,0,0-2.61-1.83,2.7,2.7,0,0,0-2.69,1.83Z"></path><path class="cls-2" d="M359,1V10.3h-15.6V54.42H334V10.3h-15.6V1Z"></path><path class="cls-2" d="M364.09,54.42H353.8L372.57,6.89c2-5,5.62-6.89,11.25-6.89S393,1.9,394.91,6.89L413,54.42H402.59l-16.24-43a2.55,2.55,0,0,0-2.61-1.83,2.72,2.72,0,0,0-2.7,1.83Z"></path><path class="cls-2" d="M117.56,45.07V31.84h26.27V23.37H117.56V10.3h26.67V1H117.46c-.64,0-1.24,0-1.84.07h-7.9V54.41h36.59V45.07Z"></path><path class="cls-3" d="M447.62,27.71H381.19a2.28,2.28,0,1,1,0-4.56h66.43a2.28,2.28,0,0,1,0,4.56Z"></path><path class="cls-4" d="M447.62,38.67H381.19a2.28,2.28,0,1,1,0-4.56h66.43a2.28,2.28,0,0,1,0,4.56Z"></path><path class="cls-5" d="M447.62,50.31H381.19a2.28,2.28,0,1,1,0-4.56h66.43a2.28,2.28,0,0,1,0,4.56Z"></path><path class="cls-3" d="M323.92,27.71H291a2.29,2.29,0,0,1,0-4.56h32.95a2.29,2.29,0,0,1,0,4.56Z"></path><path class="cls-4" d="M323.92,38.67H291a2.29,2.29,0,0,1,0-4.56h32.95a2.29,2.29,0,0,1,0,4.56Z"></path><path class="cls-5" d="M323.92,50.31H291a2.29,2.29,0,0,1,0-4.56h32.95a2.29,2.29,0,0,1,0,4.56Z"></path><path class="cls-6" d="M163.31,1,179.7,20.7,196.89,1h11.57l-22.9,26.3,23.06,27.16H197.21L179.47,33.22,161.25,54.44H149.68l23.93-27.88L151.9,1Z"></path></g></g></svg> 